<svg xmlns="http://www.w3.org/2000/svg" fill="none" viewBox="0 0 24 24"><g stroke="#43a047" stroke-linecap="round" stroke-width="1.5"><path d="M12 9h-1c-.94 0-1.41 0-1.7.3-.3.29-.3.76-.3 1.7v7.5c0 1.4 0 2.1-.34 2.61a2 2 0 0 1-.55.55c-.5.34-1.2.34-2.61.34-1.4 0-2.1 0-2.61-.34a2 2 0 0 1-.55-.55C2 20.61 2 19.91 2 18.5V6c0-1.89 0-2.83.59-3.41C3.17 2 4.1 2 6 2h12.5c1.4 0 2.1 0 2.61.34a2 2 0 0 1 .55.55c.34.5.34 1.2.34 2.61 0 1.4 0 2.1-.34 2.61a2 2 0 0 1-.55.55c-.5.34-1.2.34-2.61.34H16M12 2v2m6-2v2M9 2v3m6-3v3M2 12h2m-2 6h2m-2-3h3M2 9h3"/></g></svg>
