<svg xmlns="http://www.w3.org/2000/svg" fill="none" viewBox="0 0 24 24"><g stroke="#43a047" stroke-width="1.5"><path stroke-linecap="round" d="M22 10.23v5.65c0 2.89 0 4.33-.88 5.22-.88.9-2.3.9-5.12.9H8c-2.83 0-4.24 0-5.12-.9C2 20.2 2 18.77 2 15.88v-2.8c0-2.09 0-3.14.55-3.93.56-.8 1.53-1.14 3.47-1.84l8-2.85c3.63-1.3 5.45-1.95 6.72-1.03.68.5 1 1.3 1.14 2.57"/><path d="M9 14c0-1.41 0-2.12.44-2.56C9.88 11 10.59 11 12 11c1.41 0 2.12 0 2.56.44.44.44.44 1.15.44 2.56 0 1.41 0 2.12-.44 2.56-.44.44-1.15.44-2.56.44-1.41 0-2.12 0-2.56-.44C9 16.12 9 15.41 9 14Z"/><path stroke-linecap="round" d="m15 11 1-1M9 11l-1-1M15 17l1 1M9 17l-1 1M5 7.06c0-1.3 0-1.96.34-2.4.09-.12.19-.23.3-.32C6.08 4 6.72 4 8 4h.82c.5 0 .76 0 .97.06.56.15 1 .6 1.15 1.18"/></g></svg>
