<svg xmlns="http://www.w3.org/2000/svg" fill="none" viewBox="0 0 24 24"><g stroke="#43a047" stroke-width="1.5"><path stroke-linecap="round" d="M17 14c0 1.41 0 2.12-.44 2.56-.44.44-1.15.44-2.56.44h-4c-1.41 0-2.12 0-2.56-.44C7 16.12 7 15.41 7 14v-4c0-1.41 0-2.12.44-2.56C7.88 7 8.59 7 10 7h4c1.41 0 2.12 0 2.56.44.44.44.44 1.15.44 2.56"/><path d="M4 12c0-3.77 0-5.66 1.17-6.83S8.23 4 12 4s5.66 0 6.83 1.17S20 8.23 20 12s0 5.66-1.17 6.83S15.77 20 12 20s-5.66 0-6.83-1.17S4 15.77 4 12Z"/><path stroke-linecap="round" d="M4 12H2M22 12h-2M4 9H2M22 9h-2M4 15H2M22 15h-2M12 20v2M12 2v2M9 20v2M9 2v2M15 20v2M15 2v2"/></g></svg>
