<svg xmlns="http://www.w3.org/2000/svg" fill="none" viewBox="0 0 24 24"><path fill="#43a047" d="M6 8v-.75a.75.75 0 0 0-.75.75H6Zm4 .75a.75.75 0 0 0 0-1.5v1.5Zm0 4a.75.75 0 0 0 0-1.5v1.5Zm8.6-4.3a.75.75 0 1 0-1.2-.9l1.2.9Zm-7.2 7.1a.75.75 0 1 0 1.2.9l-1.2-.9Zm1.2-8a.75.75 0 1 0-1.2.9l1.2-.9Zm4.8 8.9a.75.75 0 1 0 1.2-.9l-1.2.9ZM5.25 16a.75.75 0 0 0 1.5 0h-1.5ZM6 8.75h4v-1.5H6v1.5Zm0 4h4v-1.5H6v1.5Zm11.4-5.2-3 4 1.2.9 3-4-1.2-.9Zm-3 4-3 4 1.2.9 3-4-1.2-.9Zm-3-3.1 3 4 1.2-.9-3-4-1.2.9Zm3 4 3 4 1.2-.9-3-4-1.2.9ZM5.25 8v4h1.5V8h-1.5Zm0 4v4h1.5v-4h-1.5Z"/><path stroke="#43a047" stroke-linecap="round" stroke-width="1.5" d="M22 12c0 4.71 0 7.07-1.46 8.54C19.07 22 16.7 22 12 22c-4.71 0-7.07 0-8.54-1.46C2 19.07 2 16.7 2 12c0-4.71 0-7.07 1.46-8.54C4.93 2 7.3 2 12 2c4.71 0 7.07 0 8.54 1.46.97.98 1.3 2.35 1.4 4.54"/></svg>
