<svg xmlns="http://www.w3.org/2000/svg" fill="none" viewBox="0 0 24 24"><circle cx="12" cy="17" r="1" stroke="#43a047" stroke-width="1.5"/><circle cx="8" cy="9" r="1" stroke="#43a047" stroke-width="1.5"/><path fill="#43a047" d="M11.25 16a.75.75 0 0 0 1.5 0h-1.5ZM12 6l.53-.53a.75.75 0 0 0-1.06 0L12 6Zm.47 1.53a.75.75 0 1 0 1.06-1.06l-1.06 1.06Zm-2-1.06a.75.75 0 0 0 1.06 1.06l-1.06-1.06Zm1 .06 1 1 1.06-1.06-1-1-1.06 1.06Zm0-1.06-1 1 1.06 1.06 1-1-1.06-1.06ZM12.75 16v-1.88h-1.5V16h1.5Zm0-1.88V6h-1.5v8.13h1.5Z"/><path stroke="#43a047" stroke-linecap="round" stroke-width="1.5" d="M8 10v1.03a2 2 0 0 0 1.4 1.9l1.4.45c.72.22 1.2.88 1.2 1.62M16 11v1.03a2 2 0 0 1-1.4 1.9l-1.4.45A1.7 1.7 0 0 0 12 16"/><path stroke="#43a047" stroke-width="1.5" d="M15 10c0-.47 0-.7.15-.85.14-.15.38-.15.85-.15s.7 0 .85.15c.15.14.15.38.15.85s0 .7-.15.85c-.14.15-.38.15-.85.15s-.7 0-.85-.15C15 10.71 15 10.47 15 10Z"/><path stroke="#43a047" stroke-linecap="round" stroke-width="1.5" d="M22 12c0 4.71 0 7.07-1.46 8.54C19.07 22 16.7 22 12 22c-4.71 0-7.07 0-8.54-1.46C2 19.07 2 16.7 2 12c0-4.71 0-7.07 1.46-8.54C4.93 2 7.3 2 12 2c4.71 0 7.07 0 8.54 1.46.97.98 1.3 2.35 1.4 4.54"/></svg>
