<svg xmlns="http://www.w3.org/2000/svg" fill="none" viewBox="0 0 24 24"><path stroke="#43a047" stroke-linecap="round" stroke-width="1.5" d="M19 17v1M16.5 17v1M14 17v1M11.5 17v1"/><path fill="#43a047" d="m19 5.12.72-.21v-.02l-.72.23Zm-14 0-.72-.23v.01l.72.22Zm16.13 10.04a.75.75 0 1 0 1.44-.41l-1.44.41Zm-19.7-.41a.75.75 0 1 0 1.44.41l-1.44-.41Zm1.46 5.9-.43.6.43-.6Zm-.55-.6.63-.4-.63.4Zm19.32 0-.63-.4.63.4Zm-.55.6.43.6-.43-.6Zm0-6.7.43-.62-.43.62Zm.55.58-.63.4.63-.4ZM2.9 13.95l-.43-.62.43.62Zm-.55.58.63.4-.63-.4Zm18.8-4.7a.75.75 0 1 0-1.43.42l1.44-.42Zm-2.5-3.27a.75.75 0 1 0 1.44-.42l-1.44.42ZM12 20.25a.75.75 0 0 0 0 1.5v-1.5Zm-4 1.5a.75.75 0 0 0 0-1.5v1.5Zm-.5-18h9v-1.5h-9v1.5Zm9 0c.43 0 .75.1 1.02.3.27.21.54.6.76 1.3l1.44-.46a3.99 3.99 0 0 0-1.28-2.02 3.07 3.07 0 0 0-1.94-.62v1.5Zm-9-1.5c-.68 0-1.35.16-1.94.62-.58.45-1 1.13-1.28 2.02l1.44.45c.22-.7.5-1.08.76-1.29.27-.2.6-.3 1.02-.3v-1.5ZM4.28 4.91l-2.85 9.84 1.44.41 2.85-9.83-1.44-.42Zm1.22 9.43h13v-1.5h-13v1.5Zm0 5.91c-.72 0-1.2 0-1.56-.04-.35-.04-.51-.1-.62-.18l-.86 1.23c.4.28.84.39 1.32.44.46.05 1.03.05 1.72.05v-1.5Zm-4.25-2.96c0 .73 0 1.33.05 1.82a3 3 0 0 0 .4 1.35l1.27-.8a1.54 1.54 0 0 1-.18-.7c-.04-.4-.04-.9-.04-1.67h-1.5Zm2.07 2.74c-.13-.1-.25-.22-.35-.37l-1.27.8c.2.31.46.58.76.8l.86-1.23Zm17.93-2.74c0 .76 0 1.28-.04 1.67-.04.39-.1.57-.18.7l1.27.8a3 3 0 0 0 .4-1.35c.05-.49.05-1.09.05-1.82h-1.5Zm-2.75 4.46c.69 0 1.26 0 1.72-.05a2.7 2.7 0 0 0 1.32-.44l-.86-1.23c-.1.08-.27.14-.62.18-.36.04-.84.04-1.56.04v1.5Zm2.53-2.1c-.1.16-.22.28-.35.38l.86 1.23c.3-.22.56-.49.76-.8l-1.27-.8Zm-2.53-5.31c.72 0 1.2 0 1.56.04.35.04.51.1.62.18l.86-1.23a2.7 2.7 0 0 0-1.32-.44c-.46-.05-1.03-.05-1.72-.05v1.5Zm4.25 2.95c0-.72 0-1.32-.05-1.8a3 3 0 0 0-.4-1.36l-1.27.8c.08.13.14.31.18.7.04.39.04.9.04 1.66h1.5Zm-2.07-2.73c.13.1.25.22.35.37l1.27-.8c-.2-.31-.46-.58-.76-.8l-.86 1.23ZM5.5 12.84c-.69 0-1.26 0-1.72.05a2.7 2.7 0 0 0-1.32.44l.86 1.23c.1-.08.27-.14.62-.18.36-.04.84-.04 1.56-.04v-1.5Zm-2.75 4.45c0-.75 0-1.27.04-1.66.04-.39.1-.57.18-.7l-1.27-.8a3 3 0 0 0-.4 1.35c-.05.49-.05 1.09-.05 1.81h1.5Zm-.3-3.96c-.3.22-.55.49-.75.8l1.27.8c.1-.15.22-.28.35-.37l-.86-1.23Zm17.26-3.08 1.42 4.91 1.44-.41-1.42-4.92-1.44.42Zm-1.43-4.92.36 1.23 1.44-.42-.36-1.23-1.44.42Zm.22 14.92H12v1.5h6.5v-1.5Zm-10.5 0H5.5v1.5H8v-1.5Z"/></svg>
