<svg xmlns="http://www.w3.org/2000/svg" fill="none" viewBox="0 0 24 24"><g stroke="#000" stroke-width="1.5"><path d="M17 12a5 5 0 1 0-4.48-2.77c.1.17.12.38.07.57l-.3 1.11c-.13.49.31.93.8.8l1.11-.3c.2-.05.4-.02.57.07.67.33 1.43.52 2.23.52Z"/><path stroke-linecap="round" d="M2 9.93c-.07 1.91.42 5.15 3.67 8.4.78.79 1.57 1.41 2.33 1.9M3.54 6.93c1.4-1.39 3.61-1.2 4.5.39l.65 1.16a2.83 2.83 0 0 1-.58 3.35s0 0 0 0-1.11 1.12.91 3.15c2.03 2.02 3.15.9 3.15.9s0 0 0 0a2.83 2.83 0 0 1 3.35-.57l1.16.65c1.59.89 1.78 3.1.38 4.5a4.64 4.64 0 0 1-3 1.53 9.8 9.8 0 0 1-3.06-.38"/></g></svg>
