<svg xmlns="http://www.w3.org/2000/svg" fill="none" viewBox="0 0 24 24"><g stroke="#000" stroke-width="1.5"><circle cx="12" cy="13" r="3"/><path stroke-linecap="round" d="M2 13.36c0-3.06 0-4.6.75-5.7a4.4 4.4 0 0 1 1.23-1.2c.72-.47 1.62-.64 3-.7a1.4 1.4 0 0 0 1.35-1.12A2.06 2.06 0 0 1 10.37 3h3.26c1 0 1.84.68 2.04 1.64.13.63.7 1.12 1.35 1.12 1.38.06 2.28.23 3 .7.49.32.9.73 1.23 1.2.75 1.1.75 2.64.75 5.7 0 3.07 0 4.6-.75 5.7a4.4 4.4 0 0 1-1.23 1.2c-1.12.74-2.68.74-5.8.74H9.78c-3.12 0-4.68 0-5.8-.74a4.4 4.4 0 0 1-1.23-1.2A3.43 3.43 0 0 1 2.28 18M19 10h-1"/></g></svg>
