<svg xmlns="http://www.w3.org/2000/svg" width="24" height="24" fill='#292a31' viewBox="0 0 648 652"><path d="M109.4 56.5C87.6 61.3 68 76.7 58.5 96.4c-7.9 16.3-7.5 7.3-7.5 145 0 138.2-.5 128.4 7.7 145.5 3.8 8 5.9 10.8 13.7 18.6 10.1 10.2 18 15.2 30.4 19.3 7 2.3 9.5 2.6 28.7 3 13.2.2 22.6 0 25.1-.7 10.1-2.7 17.4-12.5 17.4-23.3 0-6.9-1.6-11.1-6-16.2-6.4-7.2-9.1-8-31-8.6-11.2-.4-20.7-1.1-22.2-1.8-4.3-1.8-11-8.4-12.9-12.7-1.8-3.8-1.9-10-1.9-122.9 0-118.5 0-119 2.1-123.3 2.6-5.4 9.6-11.6 14.7-13.1 5.2-1.6 234.8-1.7 240.4-.2 5.6 1.6 11.9 6.9 14.7 12.5 2.5 4.7 2.6 6 3.1 24.5.5 19.1.6 19.6 3.3 24.2 11.2 19.1 39.4 15.1 44.8-6.4 1.7-7 .6-41.4-1.6-49.3-6.9-25-25.3-43.9-51-52.6l-7-2.4-124-.2c-101.3-.1-125.1.1-130.1 1.2z"/><path d="M291.5 230c-9.3 1.1-21.5 5.1-29.5 9.7-3.6 2.1-10.3 7.6-15 12.3-7.1 7-9.4 10.2-13.3 18-8.8 17.8-8.2 6.4-8.2 146 0 139.4-.6 128.1 8.1 145.9 10.1 20.6 29.7 35.2 53.2 39.7 10.6 2 238.9 2 250.3 0 28.8-5.2 51.6-26.7 59.5-56.1 1.8-6.7 1.9-12.8 1.9-129.5V293.5l-2.3-7.9c-7.6-27-26.8-46.2-53.8-53.8l-7.9-2.3-118-.1c-64.9-.1-121.1.2-125 .6zm244.4 51.6c5.6 2.8 10.1 8 12.3 14.2 1 3 1.3 27.3 1.3 121.2v117.5l-2.4 4.8c-1.3 2.6-4.2 6.3-6.4 8.3-8 6.8-1.7 6.5-131.3 6.2-111.8-.3-117.1-.4-120.4-2.2-4.9-2.6-9.8-7.4-12.3-12.1l-2.2-4-.3-116.9c-.3-129.6-.6-123.3 6.2-131.3 2-2.2 5.5-5 7.8-6.2l4.3-2.1h238.1l5.3 2.6z"/></svg>
