<svg xmlns="http://www.w3.org/2000/svg" width="100" height="100" version="1.0" viewBox="0 0 542 542"><path d="M213 42.6c-16.2 4.2-32.2 17-39.4 31.4-5.5 11.3-6.7 16.7-7.3 34.2l-.6 15.8h-43.6c-49 0-48.7 0-54.8 7.5-6 7.2-6.3 16.3-.9 24.5 4.4 6.7 9 8.4 24.4 8.8l13.2.4v138.1c0 116.6.3 139.3 1.5 145 4.7 22.4 23.2 41.4 46 47.2 8.9 2.3 228.1 2.3 237 0 17.2-4.4 33.6-17.5 40.9-32.7 6.9-14.4 6.6-6.5 6.6-159.5V165.2l13.3-.4c15.3-.4 19.9-2.1 24.3-8.8 5.4-8.2 5.1-17.3-.9-24.5-6.1-7.5-5.8-7.5-54.8-7.5h-43.6l-.6-15.8c-.3-9.5-1.2-17.9-2.1-21.2-6.1-21.7-23.7-39.1-45.1-44.5-8.5-2.2-105.2-2.1-113.5.1zM320.9 84c5.1 2.6 9.7 8.2 11 13.6.6 2.3 1.1 9.3 1.1 15.3V124H207v-11.1c0-13.2 1.2-18.4 5.2-23.3 6.4-7.7 4.5-7.5 57.6-7.6 45.1 0 47.5.1 51.1 2zM395 302.3v137.3l-2.5 5.1c-1.6 3.2-4.1 6.1-6.7 7.9l-4.1 2.9H158.3l-4.1-2.9c-2.6-1.8-5.1-4.7-6.7-7.9l-2.5-5.1V165h250v137.3z"/><path d="M219 230.2c-2.5 1.4-5.8 4.4-7.5 6.7l-3 4.3v138.6l3 4.4c4.7 6.6 9.5 8.9 17.7 8.6 5.5-.3 7.5-.9 10.9-3.3 2.3-1.7 5.2-4.8 6.3-7 2.1-3.9 2.1-5.3 2.4-70.9l.2-67-2.5-5.2c-3.5-7.2-8.8-10.7-16.9-11.2-5-.3-6.9.1-10.6 2zM303.5 229.3c-4.5 2.1-9.1 7.1-10.9 11.9-1.5 3.8-1.6 11.5-1.4 70.8.3 65.2.3 66.6 2.4 70.5 1.1 2.2 4 5.3 6.3 7 3.4 2.4 5.4 3 10.9 3.3 8.2.3 13-2 17.7-8.6l3-4.4.3-68.2.2-68.2-2.3-4.5c-3.5-6.6-9.3-10.2-17-10.6-3.8-.2-7.4.2-9.2 1z"/></svg>
