<svg xmlns="http://www.w3.org/2000/svg" fill="none" viewBox="0 0 24 24"><path fill="#000" d="M2.69 6.7a.75.75 0 0 0-1.38.6l1.38-.6Zm12.9 6.63-.28-.7.28.7Zm-6.55.4a.75.75 0 1 0-1.26-.81l1.26.82ZM6.37 15.1a.75.75 0 1 0 1.26.82l-1.26-.82ZM22.7 7.3a.75.75 0 0 0-1.38-.59l1.38.6ZM19 11.14l-.51-.55.51.55Zm.97 2.03a.75.75 0 1 0 1.06-1.06l-1.06 1.06Zm-8.72 3.34a.75.75 0 0 0 1.5 0h-1.5Zm5.12-.6a.75.75 0 1 0 1.26-.8l-1.26.8ZM5.53 11.67a.75.75 0 0 0-1.06-1.06l1.06 1.06Zm-2.56.44a.75.75 0 0 0 1.06 1.06L2.97 12.1ZM12 13.25a9.52 9.52 0 0 1-7.08-3.26A13.64 13.64 0 0 1 2.7 6.72V6.7a104.65 104.65 0 0 1-1.38.59 3.84 3.84 0 0 0 .16.34A15.13 15.13 0 0 0 3.82 11 11.01 11.01 0 0 0 12 14.75v-1.5Zm3.31-.62c-.97.38-2.07.62-3.31.62v1.5c1.44 0 2.72-.28 3.86-.72l-.55-1.4Zm-7.53.29-1.4 2.17 1.25.82 1.41-2.17-1.26-.82ZM22 7l-.69-.3v.02a4.36 4.36 0 0 1-.16.31 13.3 13.3 0 0 1-2.67 3.55l1.03 1.1a14.8 14.8 0 0 0 3.16-4.35l.01-.02V7.3L22 7Zm-3.51 3.58c-.86.8-1.92 1.55-3.18 2.05l.55 1.4a11.52 11.52 0 0 0 3.65-2.35l-1.02-1.1Zm-.02 1.08 1.5 1.5 1.06-1.06-1.5-1.5-1.06 1.06ZM11.25 14v2.5h1.5V14h-1.5Zm3.7-.26 1.42 2.17 1.26-.82-1.41-2.17-1.26.82ZM4.48 10.6l-1.5 1.5 1.06 1.06 1.5-1.5-1.06-1.06Z"/></svg>
