<svg xmlns="http://www.w3.org/2000/svg" fill="none" viewBox="0 0 24 24"><g stroke="#000" stroke-width="1.5"><path d="m18.18 8.04.46-.46a1.97 1.97 0 1 1 2.78 2.78l-.46.46m-2.78-2.78s.06.98.93 1.85c.87.87 1.85.93 1.85.93m-2.78-2.78-4.26 4.26c-.29.29-.43.43-.56.6-.14.18-.27.38-.37.6-.09.18-.15.37-.28.76l-.42 1.24-.13.4m8.8-5.08-4.26 4.26c-.29.29-.43.43-.6.56-.18.14-.38.27-.6.37-.18.09-.37.15-.76.28l-1.24.42-.4.13m0 0-.4.13a.53.53 0 0 1-.67-.67l.13-.4m.94.94-.94-.94"/><path stroke-linecap="round" d="M8 13h2.5M8 9h6.5M8 17h1.5M3 14v-4c0-3.77 0-5.66 1.17-6.83S7.23 2 11 2h2c3.77 0 5.66 0 6.83 1.17M21 14c0 3.77 0 5.66-1.17 6.83m-15.66 0C5.34 22 7.23 22 11 22h2c3.77 0 5.66 0 6.83-1.17m0 0c.94-.94 1.13-2.35 1.16-4.83"/></g></svg>
