<svg xmlns="http://www.w3.org/2000/svg" width="307.932" height="320" viewBox="0 0 288.686 300"><path d="m197.406 636.49 57.736-100-57.736-100-57.735 100z" style="fill:none;fill-opacity:1;fill-rule:evenodd;stroke:none;stroke-width:1px;stroke-linecap:butt;stroke-linejoin:miter;stroke-opacity:1" transform="translate(-81.931 -336.49)"/><path d="m197.406 436.49-57.735 100h1.963l55.772-96.6zM197.406 636.49l-57.735-100h1.963l55.772 96.6zM197.407 636.49l57.735-100h-1.963l-55.772 96.6zM197.407 436.49l57.735 100h-1.963l-55.772-96.6z" style="fill:#b4b4bb;fill-opacity:1;fill-rule:evenodd;stroke:none;stroke-width:1px;stroke-linecap:butt;stroke-linejoin:miter;stroke-opacity:1" transform="translate(-81.931 -336.49)"/><path d="m370.617 536.49-57.735-100h-115.47l57.735 100z" style="fill:#f0f0f1;fill-opacity:1;fill-rule:evenodd;stroke:none;stroke-width:1px;stroke-linecap:butt;stroke-linejoin:miter;stroke-opacity:1" transform="translate(-81.931 -336.49)"/><path d="m197.412 436.49 57.735 100 .981-1.7-55.772-96.6z" style="fill:#b4b4bb;fill-opacity:1;fill-rule:evenodd;stroke:none;stroke-width:1px;stroke-linecap:butt;stroke-linejoin:miter;stroke-opacity:1" transform="translate(-81.931 -336.49)"/><path d="M370.617 536.49h-115.47l.981-1.7h111.544z" style="fill:gray;fill-opacity:1;fill-rule:evenodd;stroke:none;stroke-width:1px;stroke-linecap:butt;stroke-linejoin:miter;stroke-opacity:1" transform="translate(-81.931 -336.49)"/><path d="m370.617 536.49-57.735-100-.981 1.7 55.772 96.6z" style="fill:#b4b4bb;fill-opacity:1;fill-rule:evenodd;stroke:none;stroke-width:1px;stroke-linecap:butt;stroke-linejoin:miter;stroke-opacity:1" transform="translate(-81.931 -336.49)"/><path d="M197.412 436.49h115.47l-.981 1.7H200.357z" style="fill:#fff;fill-opacity:1;fill-rule:evenodd;stroke:none;stroke-width:1px;stroke-linecap:butt;stroke-linejoin:miter;stroke-opacity:1" transform="translate(-81.931 -336.49)"/><path d="m370.617 536.49-57.735 100h-115.47l57.735-100z" style="fill:#f0f0f1;fill-opacity:1;fill-rule:evenodd;stroke:none;stroke-width:1px;stroke-linecap:butt;stroke-linejoin:miter;stroke-opacity:1" transform="translate(-81.931 -336.49)"/><path d="m197.412 636.49 57.735-100 .981 1.7-55.772 96.6z" style="fill:#b4b4bb;fill-opacity:1;fill-rule:evenodd;stroke:none;stroke-width:1px;stroke-linecap:butt;stroke-linejoin:miter;stroke-opacity:1" transform="translate(-81.931 -336.49)"/><path d="M370.617 536.49h-115.47l.981 1.7h111.544z" style="fill:#fff;fill-opacity:1;fill-rule:evenodd;stroke:none;stroke-width:1px;stroke-linecap:butt;stroke-linejoin:miter;stroke-opacity:1" transform="translate(-81.931 -336.49)"/><path d="m370.617 536.49-57.735 100-.981-1.7 55.772-96.6z" style="fill:#b4b4bb;fill-opacity:1;fill-rule:evenodd;stroke:none;stroke-width:1px;stroke-linecap:butt;stroke-linejoin:miter;stroke-opacity:1" transform="translate(-81.931 -336.49)"/><path d="M197.412 636.49h115.47l-.981-1.7H200.357z" style="fill:gray;fill-opacity:1;fill-rule:evenodd;stroke:none;stroke-width:1px;stroke-linecap:butt;stroke-linejoin:miter;stroke-opacity:1" transform="translate(-81.931 -336.49)"/><path d="m139.667 536.49-57.735-100 57.735-100 57.735 100z" style="fill:#f0f0f1;fill-opacity:1;fill-rule:evenodd;stroke:none;stroke-width:1px;stroke-linecap:butt;stroke-linejoin:miter;stroke-opacity:1" transform="translate(-81.931 -336.49)"/><path d="m139.667 336.49 57.735 100h-1.963l-55.772-96.6zM139.667 536.49l57.735-100h-1.963l-55.772 96.6zM139.666 536.49l-57.735-100h1.963l55.772 96.6zM139.666 336.49l-57.735 100h1.963l55.772-96.6z" style="fill:#b4b4bb;fill-opacity:1;fill-rule:evenodd;stroke:none;stroke-width:1px;stroke-linecap:butt;stroke-linejoin:miter;stroke-opacity:1" transform="translate(-81.931 -336.49)"/></svg>
