<svg xmlns="http://www.w3.org/2000/svg" fill="none" viewBox="0 0 24 24"><path fill="#292a31" d="m15.1 15.03.54.51-.54-.51Zm.46-.48-.55-.52.55.52Zm2.41-.34-.37.65.37-.65Zm1.91 1.1-.37.65.37-.65Zm.54 3.45.55.51-.55-.51ZM19 20.26l-.54-.52.54.51Zm-1.32.7.07.75-.07-.75Zm-9.86-4.48.54-.52-.54.52ZM3.75 6.93a.75.75 0 1 0-1.5.08l1.5-.08ZM9.2 8.8l.54.51-.54-.51Zm.29-.3.54.51-.54-.52Zm.15-2.82.62-.43-.62.43ZM8.37 3.91l-.6.43.6-.43Zm-3.65-.82A.75.75 0 0 0 5.8 4.13L4.7 3.09Zm6.34 9.97.55-.52-.55.52Zm-.4 6.75a.75.75 0 1 0 .8-1.27l-.8 1.27Zm4.45.25a.75.75 0 0 0-.3 1.47l.3-1.47Zm.53-4.52.46-.48-1.09-1.03-.45.48 1.08 1.03Zm1.96-.68 1.9 1.1.76-1.3-1.91-1.1-.75 1.3Zm2.28 3.38-1.42 1.5 1.09 1.03 1.42-1.5-1.1-1.03ZM8.36 15.96c-3.88-4.08-4.53-7.52-4.6-9.03L2.25 7c.1 1.85.88 5.63 5.01 9.98l1.09-1.03Zm1.37-6.64.3-.3-1.1-1.03-.28.3 1.08 1.03Zm.52-4.06L8.99 3.48l-1.23.86 1.26 1.79 1.23-.87ZM9.19 8.81l-.54-.52a.67.67 0 0 0-.06.06l-.07.1c-.05.09-.11.2-.16.33-.1.27-.15.64-.08 1.1.13.88.71 2.08 2.24 3.7l1.09-1.04c-1.43-1.5-1.78-2.43-1.85-2.88a.79.79 0 0 1 .01-.38l.01-.02a.25.25 0 0 1-.03.04.65.65 0 0 1-.01.02l-.55-.51Zm1.33 4.76c1.52 1.6 2.67 2.24 3.55 2.38.45.07.81.01 1.1-.1a1.52 1.52 0 0 0 .45-.28l.01-.01v-.01h.01l-.54-.52-.54-.52v-.01a.81.81 0 0 1 .05-.04c.01 0 .01 0 0 0a.58.58 0 0 1-.3 0c-.4-.06-1.27-.41-2.7-1.92l-1.1 1.03ZM8.99 3.47a2.75 2.75 0 0 0-4.27-.38L5.8 4.13c.52-.56 1.44-.51 1.95.21L9 3.48Zm9.47 16.27c-.28.3-.57.45-.86.48l.15 1.49a2.89 2.89 0 0 0 1.8-.94l-1.1-1.03ZM10.02 9.02a2.99 2.99 0 0 0 .23-3.76l-1.23.87c.42.6.36 1.39-.09 1.86l1.1 1.03Zm9.49 6.94c.82.47.98 1.64.37 2.28l1.09 1.03a3 3 0 0 0-.71-4.6l-.75 1.3Zm-3.41-.9c.39-.4.99-.5 1.5-.2l.75-1.3a2.7 2.7 0 0 0-3.34.47l1.09 1.03Zm-4.64 3.48a16.16 16.16 0 0 1-3.1-2.58l-1.09 1.03a17.65 17.65 0 0 0 3.4 2.82l.8-1.27Zm6.14 1.68c-.54.05-1.4.06-2.49-.16l-.3 1.47c1.24.26 2.26.25 2.94.18l-.15-1.5Z"/></svg>
