<svg xmlns="http://www.w3.org/2000/svg" fill="none" viewBox="0 0 24 24"><path stroke="currentColor" stroke-linecap="round" stroke-width="1.5" d="M6.04 7.77c-2.46.56-3.69.84-3.98 1.78-.3.94.54 1.92 2.22 3.88l.43.5c.48.56.72.84.83 1.19.1.34.07.71 0 1.46l-.07.67c-.25 2.62-.38 3.93.39 4.51.76.58 1.91.05 4.22-1l.6-.28c.65-.3.97-.46 1.32-.46.35 0 .67.16 1.33.46l.6.27c2.3 1.06 3.45 1.6 4.21 1.01.77-.58.64-1.89.4-4.5m1.18-3.83c1.68-1.96 2.52-2.94 2.22-3.88-.29-.94-1.52-1.22-3.98-1.78l-.64-.14c-.7-.16-1.04-.24-1.32-.45-.29-.22-.47-.54-.83-1.18l-.32-.6C13.58 3.15 12.95 2 12 2c-.95 0-1.58 1.14-2.85 3.4"/></svg>
