<svg xmlns="http://www.w3.org/2000/svg" width="24" height="24" viewBox="0 0 1016 1016"><path d="M495.9 94.4c-7.6 2.9-11.8 5.7-16.5 10.9-4.2 4.7-12.6 21-59.8 116.9l-54.9 111.5-18.6 2.7C117 369.8 116.9 369.8 110.4 373c-7.4 3.6-13.6 10.1-17.2 17.8-2.4 5-2.7 6.9-2.7 15.7 0 15.1.9 16.6 26.7 42.1 11.7 11.6 52.5 51.4 90.6 88.5 45.8 44.6 69 67.8 68.7 68.9-.2.8-9.7 55.7-21.1 122-22.8 133.1-22.3 129.1-17 140.2 7.5 15.8 25.8 24.7 42.1 20.5 4-1 41.9-20.4 116-59.4 60.5-31.8 110.4-57.7 110.9-57.5.6.2 50.5 26.4 111.1 58.2 77.4 40.7 111.7 58.3 115.5 59.1 21 4.5 43.1-12 44.7-33.3.3-5.1-3.6-29.8-20.2-126.3-11.3-66-20.8-121.2-21.1-122.6-.4-2.4 7.8-10.7 89.5-90.3 82.5-80.3 90.3-88.3 93.2-94.1 9.9-20.2-1.3-46-22.6-52-2.7-.8-59.7-9.3-126.5-19.1-66.8-9.7-121.8-17.9-122.1-18.3-.3-.3-25.3-50.7-55.5-112-43.5-88.3-55.8-112.4-59.2-116.2-2.7-3-6.8-6.1-10.9-8.1-5.6-2.7-7.8-3.2-15.2-3.5-5.5-.2-9.9.2-12.2 1.1zM550 302.2c46.1 93.3 45.7 92.7 56.8 98.6 7 3.7-1.4 2.3 111.2 18.7 47.6 7 86.7 12.9 87 13.1.5.6 4.1-3-74 73-33.8 32.9-62.5 61-63.7 62.5-3.5 4.1-7.1 12.7-7.9 18.5-.5 4.2 2.5 23.6 15.7 100.3 9 52.3 16 95.3 15.7 95.6-.3.3-38.5-19.4-84.9-43.8-46.4-24.4-86.2-45-88.4-45.7-5.9-1.9-17.1-1.6-23 .7-2.7 1.1-42.3 21.6-87.9 45.7-45.6 24-83.3 43.6-83.8 43.6-.4 0-.6-1-.3-2.3.6-2.4 27.4-159.1 30.5-178 1.6-9.5 1.7-12.8.9-17.5-2.4-12.9-.8-11.1-76.3-84.6-38.4-37.5-69.2-68.2-68.5-68.4.8-.1 44-6.5 96-14.1 105.3-15.4 101.4-14.5 110.8-23.9 4.3-4.3 7.6-10.3 25.8-47.3C497.4 234 506.4 216 506.9 216c.3 0 19.7 38.8 43.1 86.2z"/></svg>
