<svg xmlns="http://www.w3.org/2000/svg" fill="none" viewBox="0 0 24 24"><g stroke="#65b168" stroke-linecap="round" stroke-width="1.5"><path d="M9.5 21.5v-3c0-.93 0-1.4.2-1.75.13-.23.32-.42.55-.55.35-.2.82-.2 1.75-.2s1.4 0 1.75.2c.23.13.42.32.55.55.2.35.2.82.2 1.75v3M21 22H9m-6 0h2.5M19 22v-7M5 22v-7"/><path stroke-linejoin="round" d="M12 2H7.47c-1.2 0-1.8 0-2.29.3-.48.3-.75.84-1.29 1.91L2.5 7.76c-.32.82-.6 1.79-.06 2.48A2 2 0 0 0 6 9a2 2 0 1 0 4 0 2 2 0 1 0 4 0 2 2 0 1 0 4 0 2 2 0 0 0 3.57 1.24c.55-.7.26-1.66-.06-2.48L20.1 4.2c-.54-1.07-.81-1.61-1.3-1.91-.48-.3-1.08-.3-2.28-.3H16"/></g></svg>
