<svg xmlns="http://www.w3.org/2000/svg" fill="none" viewBox="0 0 24 24"><path stroke="#43a047" stroke-linecap="round" stroke-width="1.5" d="M19 22v-1.5M5 22v-1.5"/><path fill="#43a047" d="M13 11a1 1 0 1 1-2 0 1 1 0 0 1 2 0ZM13 5a1 1 0 1 1-2 0 1 1 0 0 1 2 0ZM13 17a1 1 0 1 1-2 0 1 1 0 0 1 2 0Z"/><path stroke="#43a047" stroke-linecap="round" stroke-width="1.5" d="M2 14h12m8 0h-4M2 8h20M14 2c3.77 0 5.66 0 6.83 1.17S22 6.23 22 10v2c0 3.77 0 5.66-1.17 6.83S17.77 20 14 20h-4c-3.77 0-5.66 0-6.83-1.17S2 15.77 2 12v-2c0-3.77 0-5.66 1.17-6.83S6.23 2 10 2"/></svg>
