<svg xmlns="http://www.w3.org/2000/svg" fill="none" viewBox="0 0 24 24"><g stroke="#43a047" stroke-width="1.5"><path stroke-linecap="round" d="M19 20v-1.5M5 20v-1.5"/><path d="M2 15c0-.93 0-1.4.15-1.77a2 2 0 0 1 1.08-1.08C3.6 12 4.07 12 5 12h14c.93 0 1.4 0 1.77.15a2 2 0 0 1 1.08 1.08c.15.37.15.84.15 1.77s0 1.4-.15 1.77a2 2 0 0 1-1.08 1.08c-.37.15-.84.15-1.77.15H5c-.93 0-1.4 0-1.77-.15a2 2 0 0 1-1.08-1.08C2 16.4 2 15.93 2 15ZM21 12c0-3.77 0-5.66-1.17-6.83S16.77 4 13 4h-2C7.23 4 5.34 4 4.17 5.17S3 8.23 3 12"/><path d="M18.5 12v-1.5c0-1.89 0-2.83-.59-3.41-.58-.59-1.52-.59-3.41-.59h-5c-1.89 0-2.83 0-3.41.59-.59.58-.59 1.52-.59 3.41V12M12 7v5"/></g></svg>
